# xmcd
#
# Track frame offsets:
#	150
#	17577
#	34827
#	56762
#	72527
#	90516
#	120103
#	137903
#	156784
#
# Disc length: 2285 seconds
#
# Revision: 1
# Processed by: cddbd v1.5.2PL0 Copyright (c) Steve Scherf et al.
# Submitted via: audiograbber 1.83.01
#
DISCID=7108eb09
DTITLE=Embedded - Beyond the flesh
DYEAR=2009
DGENRE=Death Metal
TTITLE0=Terminal stage
TTITLE1=The mirror
TTITLE2=Dead to this world
TTITLE3=Down to zero
TTITLE4=Personal XTC
TTITLE5=Origin of consciousness
TTITLE6=System error
TTITLE7=(In) Sanity
TTITLE8=Living in fear
EXTD=
EXTT0=
EXTT1=
EXTT2=
EXTT3=
EXTT4=
EXTT5=
EXTT6=
EXTT7=
EXTT8=
PLAYORDER=
